<svg version="1.1" viewBox="0 0 256 256" xmlns="http://www.w3.org/2000/svg">
 <path d="m3 108v41.03h44.1516v-41.03zm18.2985 7.15311h8.0183v5.79034h-8.0183zm0 9.78816h8.0183v16.5002h-8.0183z" clip-rule="evenodd" fill="#0037bf" fill-rule="evenodd" stroke-width="2.89517"/>
 <path d="m83.3131 111.161c-18.7608 0-22.9862 9.23083-22.9862 16.8451v1.33449c0 5.09538 2.48832 17.0544 22.9862 17.0544l-0.02837 0.0284h1.883c8.45392 0 14.7908-1.82351 18.7282-5.32666 3.67688-3.27154 4.13922-7.00609 4.13922-8.45368v-0.49204h-11.0888c-1.59235 5.35594-7.72805 6.16354-12.6212 6.16354-4.54514 0-7.95972-1.01286-10.218-3.15528-2.31604-2.22916-2.63497-4.92021-2.63497-6.33884v-0.5485c0-7.52743 6.94823-9.0361 12.7965-9.0361 6.97738 0 11.4345 2.20102 12.6212 5.76207h11.1453v-0.43541c0-2.20032-1.24113-13.4015-22.8392-13.4015z" fill="#0037bf" stroke-width="2.89517"/>
 <path d="m113.537 111.885v23.6194c0 5.67453 4.60629 10.2518 10.2519 10.2518h24.954v0.0284c5.67455 0 10.2519-4.60062 10.2519-10.2462v-23.6534h-10.4837v21.2218c0 1.21585-0.98369 2.19965-2.19966 2.19965h-20.091c-1.21598 0-2.19966-0.9838-2.19966-2.19965v-21.2218z" fill="#0037bf" stroke-width="2.89517"/>
 <path d="m213.308 111.885v33.8712h39.69v-7.58286h-29.8792v-6.22575h22.2963v-7.15311h-22.2963v-5.79034h29.8792v-7.11918z" fill="#0037bf" stroke-width="2.89517"/>
 <path d="m165.769 111.885v1.99609h-0.0284v31.8752h28.6578c3.2426 0 14.0462-0.54942 14.0462-9.43758v-0.52023c0-2.38379-1.12232-5.03949-3.89041-6.97216 2.78083-1.93356 3.91868-4.59495 3.91868-6.98347v-0.52022c0-8.88817-10.8325-9.43758-14.0462-9.43758zm10.0427 6.68377h17.9818c3.85058 0 4.16747 2.3745 4.16747 3.35885v0.0566c0 2.1424-1.44601 3.30231-4.16747 3.30231h-17.9818zm12.2989 13.7803h5.68294c2.72146 0 4.16747 1.15999 4.16747 3.3023 0 1.04226-0.31689 3.4154-4.16747 3.4154h-17.9535v-6.59895l-0.0284-0.0283h11.5242z" clip-rule="evenodd" fill="#0037bf" fill-rule="evenodd" stroke-width="2.89517"/>
</svg>
