<svg fill="none" viewBox="0 0 24 24" xmlns="http://www.w3.org/2000/svg">
  <path d="M22.0035 10.9505L16.2045 8.86625L13.7805 5.82275C13.5697 5.56506 13.3042 5.35752 13.0033 5.21521C12.7023 5.0729 12.3734 4.99939 12.0405 5H6.0435C5.67673 4.99988 5.31549 5.08948 4.99129 5.26099C4.66709 5.43251 4.38977 5.68073 4.1835 5.984L2.1495 8.97125C1.72587 9.59296 1.49952 10.3279 1.5 11.0803V15.5C1.5 15.6989 1.57902 15.8897 1.71967 16.0303C1.86032 16.171 2.05109 16.25 2.25 16.25H3.8565C4.01965 16.8937 4.39277 17.4646 4.91683 17.8724C5.44089 18.2802 6.08597 18.5016 6.75 18.5016C7.41403 18.5016 8.05911 18.2802 8.58317 17.8724C9.10723 17.4646 9.48035 16.8937 9.6435 16.25H14.3565C14.5197 16.8937 14.8928 17.4646 15.4168 17.8724C15.9409 18.2802 16.586 18.5016 17.25 18.5016C17.914 18.5016 18.5591 18.2802 19.0832 17.8724C19.6072 17.4646 19.9804 16.8937 20.1435 16.25H21.75C21.9489 16.25 22.1397 16.171 22.2803 16.0303C22.421 15.8897 22.5 15.6989 22.5 15.5V11.6563C22.5 11.5018 22.4523 11.3511 22.3634 11.2248C22.2745 11.0985 22.1489 11.0027 22.0035 10.9505ZM6.75 17C6.45333 17 6.16332 16.912 5.91665 16.7472C5.66997 16.5824 5.47771 16.3481 5.36418 16.074C5.25065 15.7999 5.22094 15.4983 5.27882 15.2074C5.3367 14.9164 5.47956 14.6491 5.68934 14.4393C5.89912 14.2296 6.16639 14.0867 6.45737 14.0288C6.74834 13.9709 7.04994 14.0007 7.32403 14.1142C7.59811 14.2277 7.83238 14.42 7.99721 14.6666C8.16203 14.9133 8.25 15.2033 8.25 15.5C8.24941 15.8976 8.09118 16.2788 7.81 16.56C7.52883 16.8412 7.14764 16.9994 6.75 17ZM17.25 17C16.9533 17 16.6633 16.912 16.4166 16.7472C16.17 16.5824 15.9777 16.3481 15.8642 16.074C15.7507 15.7999 15.7209 15.4983 15.7788 15.2074C15.8367 14.9164 15.9796 14.6491 16.1893 14.4393C16.3991 14.2296 16.6664 14.0867 16.9574 14.0288C17.2483 13.9709 17.5499 14.0007 17.824 14.1142C18.0981 14.2277 18.3324 14.42 18.4972 14.6666C18.662 14.9133 18.75 15.2033 18.75 15.5C18.7494 15.8976 18.5912 16.2788 18.31 16.56C18.0288 16.8412 17.6476 16.9994 17.25 17ZM21 14.75H20.1435C19.9804 14.1063 19.6072 13.5354 19.0832 13.1276C18.5591 12.7198 17.914 12.4984 17.25 12.4984C16.586 12.4984 15.9409 12.7198 15.4168 13.1276C14.8928 13.5354 14.5197 14.1063 14.3565 14.75H9.6435C9.48035 14.1063 9.10723 13.5354 8.58317 13.1276C8.05911 12.7198 7.41403 12.4984 6.75 12.4984C6.08597 12.4984 5.44089 12.7198 4.91683 13.1276C4.39277 13.5354 4.01965 14.1063 3.8565 14.75H3V11.0803C2.99992 10.6287 3.13582 10.1875 3.39 9.81425L5.42325 6.8285C5.492 6.72731 5.58447 6.64448 5.69258 6.58722C5.80069 6.52996 5.92116 6.50002 6.0435 6.5H12.0405C12.1497 6.49967 12.2576 6.52334 12.3566 6.56935C12.4557 6.61536 12.5433 6.68258 12.6135 6.76625L15.1635 9.96725C15.2502 10.0761 15.3655 10.1587 15.4965 10.2058L21 12.1835V14.75Z" fill="currentColor"/>
</svg>