<svg width="19" height="18" viewBox="0 0 19 18" fill="none" xmlns="http://www.w3.org/2000/svg">
<path d="M18.587 8.3325L2.08705 0.0825048C1.95772 0.0178298 1.81246 -0.00808404 1.66876 0.00788357C1.52505 0.0238512 1.38902 0.0810194 1.27705 0.172505C1.17012 0.262124 1.0903 0.379795 1.04658 0.512288C1.00286 0.644781 0.996958 0.786843 1.02955 0.922505L3.01705 8.25H11.4995V9.75H3.01705L0.999547 17.055C0.968967 17.1683 0.965397 17.2872 0.989125 17.4021C1.01285 17.517 1.06322 17.6248 1.13617 17.7167C1.20912 17.8086 1.30262 17.8821 1.40915 17.9313C1.51568 17.9805 1.63227 18.0041 1.74955 18C1.86695 17.9993 1.98256 17.971 2.08705 17.9175L18.587 9.6675C18.7099 9.60457 18.813 9.50895 18.885 9.39117C18.957 9.2734 18.9951 9.13804 18.9951 9C18.9951 8.86197 18.957 8.72661 18.885 8.60884C18.813 8.49107 18.7099 8.39544 18.587 8.3325Z" fill="white"/>
</svg>
