<svg fill="none" viewBox="0 0 24 24" xmlns="http://www.w3.org/2000/svg">
  <path d="M19.5 3H16.5V1.5H15V3H9V1.5H7.5V3H4.5C4.10236 3.0006 3.72117 3.15882 3.44 3.44C3.15882 3.72117 3.0006 4.10236 3 4.5V19.5C3.0006 19.8976 3.15882 20.2788 3.44 20.56C3.72117 20.8412 4.10236 20.9994 4.5 21H19.5C19.8976 20.9994 20.2788 20.8412 20.56 20.56C20.8412 20.2788 20.9994 19.8976 21 19.5V4.5C20.9994 4.10236 20.8412 3.72117 20.56 3.44C20.2788 3.15882 19.8976 3.0006 19.5 3ZM4.5 4.5H7.5V6H9V4.5H15V6H16.5V4.5H19.5V7.5H4.5V4.5ZM4.5 9H8.25V13.5H4.5V9ZM14.25 19.5H9.75V15H14.25V19.5ZM14.25 13.5H9.75V9H14.25V13.5ZM15.75 19.5V15H19.5L19.5007 19.5H15.75Z" fill="currentColor"/>
</svg>