<svg fill="none" viewBox="0 0 24 24" xmlns="http://www.w3.org/2000/svg">
  <path d="M12 20.75L13.305 21.5L15.87 17H19.5C20.2956 17 21.0587 16.6839 21.6213 16.1213C22.1839 15.5587 22.5 14.7956 22.5 14V5C22.5 4.20435 22.1839 3.44129 21.6213 2.87868C21.0587 2.31607 20.2956 2 19.5 2H4.5C3.70435 2 2.94129 2.31607 2.37868 2.87868C1.81607 3.44129 1.5 4.20435 1.5 5V14C1.5 14.7956 1.81607 15.5587 2.37868 16.1213C2.94129 16.6839 3.70435 17 4.5 17H11.25V15.5H4.5C4.10218 15.5 3.72064 15.342 3.43934 15.0607C3.15804 14.7794 3 14.3978 3 14V5C3 4.60218 3.15804 4.22064 3.43934 3.93934C3.72064 3.65804 4.10218 3.5 4.5 3.5H19.5C19.8978 3.5 20.2794 3.65804 20.5607 3.93934C20.842 4.22064 21 4.60218 21 5V14C21 14.3978 20.842 14.7794 20.5607 15.0607C20.2794 15.342 19.8978 15.5 19.5 15.5H15L12 20.75Z" fill="currentColor"/>
  <path d="M18 6.5H6V8H18V6.5Z" fill="currentColor"/>
  <path d="M13.5 11H6V12.5H13.5V11Z" fill="currentColor"/>
</svg>