<svg fill="none" viewBox="0 0 24 24" xmlns="http://www.w3.org/2000/svg">
  <path d="M7.5 5.75V15.638C8.00041 15.8149 8.42217 16.1631 8.69073 16.6209C8.95929 17.0787 9.05735 17.6167 8.9676 18.1398C8.87785 18.6629 8.60605 19.1375 8.20025 19.4796C7.79445 19.8217 7.28077 20.0093 6.75 20.0093C6.21924 20.0093 5.70556 19.8217 5.29976 19.4796C4.89396 19.1375 4.62216 18.6629 4.53241 18.1398C4.44265 17.6167 4.54072 17.0787 4.80928 16.6209C5.07784 16.1631 5.49959 15.8149 6 15.638V5.75H7.5Z" fill="currentColor"/>
  <path fill-rule="evenodd" clip-rule="evenodd" d="M3.84413 22.1255C4.70533 22.6969 5.71616 23.0012 6.74968 23C7.78319 23.0012 8.79402 22.6969 9.65522 22.1255C10.5164 21.5541 11.1896 20.741 11.5902 19.7883C11.9909 18.8356 12.1011 17.7858 11.9071 16.7706C11.713 15.7555 11.2234 14.8203 10.4997 14.0825V5.75C10.4997 4.75544 10.1046 3.80161 9.40133 3.09835C8.69806 2.39509 7.74424 2 6.74968 2C5.75511 2 4.80129 2.39509 4.09803 3.09835C3.39476 3.80161 2.99968 4.75544 2.99968 5.75V14.0825C2.27593 14.8203 1.7863 15.7555 1.59228 16.7706C1.39825 17.7858 1.50848 18.8356 1.90911 19.7883C2.30975 20.741 2.98293 21.5541 3.84413 22.1255ZM5.15934 4.15967C5.58117 3.73784 6.15312 3.5006 6.74968 3.5C7.34623 3.5006 7.91818 3.73784 8.34001 4.15967C8.76184 4.5815 8.99908 5.15345 8.99968 5.75V14.7373L9.24868 14.9615C9.81502 15.4677 10.2143 16.1339 10.3936 16.872C10.573 17.6101 10.524 18.3853 10.2531 19.0949C9.98215 19.8046 9.50213 20.4152 8.87653 20.846C8.25093 21.2768 7.50926 21.5075 6.74968 21.5075C5.99009 21.5075 5.24842 21.2768 4.62282 20.846C3.99722 20.4152 3.5172 19.8046 3.24629 19.0949C2.97538 18.3853 2.92636 17.6101 3.10571 16.872C3.28506 16.1339 3.68433 15.4677 4.25068 14.9615L4.49968 14.7373V5.75C4.50027 5.15345 4.73752 4.5815 5.15934 4.15967Z" fill="currentColor"/>
  <path d="M22.5 10.25H19.5V11.75H22.5V10.25Z" fill="currentColor"/>
  <path d="M20.4315 5.129L19.371 4.0685L17.25 6.1895L18.3105 7.25L20.4315 5.129Z" fill="currentColor"/>
  <path d="M18.3105 14.75L17.25 15.8105L19.371 17.9315L20.4315 16.871L18.3105 14.75Z" fill="currentColor"/>
  <path d="M14.25 2H12.75V5H14.25V2Z" fill="currentColor"/>
  <path d="M12.75 6.5675C12.9977 6.52409 13.2486 6.50151 13.5 6.5C14.6935 6.5 15.8381 6.97411 16.682 7.81802C17.5259 8.66193 18 9.80653 18 11C18 12.1935 17.5259 13.3381 16.682 14.182C15.8381 15.0259 14.6935 15.5 13.5 15.5V14C14.2957 14 15.0587 13.6839 15.6213 13.1213C16.1839 12.5587 16.5 11.7956 16.5 11C16.5 10.2044 16.1839 9.44129 15.6213 8.87868C15.0587 8.31607 14.2957 8 13.5 8C13.2465 8.00367 12.9945 8.03945 12.75 8.1065V6.5675Z" fill="currentColor"/>
</svg>