<svg fill="none" viewBox="0 0 24 24" xmlns="http://www.w3.org/2000/svg">
  <path fill-rule="evenodd" clip-rule="evenodd" d="M9.49994 15.7416C10.24 16.2361 11.11 16.5 12 16.5C12.5926 16.506 13.1805 16.3937 13.7292 16.1697C14.2779 15.9457 14.7763 15.6145 15.1954 15.1954C15.6145 14.7763 15.9457 14.2779 16.1697 13.7292C16.3937 13.1805 16.506 12.5926 16.5 12C16.5 11.11 16.2361 10.24 15.7416 9.49994C15.2471 8.75991 14.5443 8.18314 13.7221 7.84254C12.8998 7.50195 11.995 7.41283 11.1221 7.58647C10.2492 7.7601 9.44736 8.18869 8.81802 8.81802C8.18869 9.44736 7.7601 10.2492 7.58647 11.1221C7.41283 11.995 7.50195 12.8998 7.84254 13.7221C8.18314 14.5443 8.75991 15.2471 9.49994 15.7416ZM10.8411 9.20954C11.2093 9.06205 11.6035 8.99077 12 9C12.3965 8.99077 12.7907 9.06205 13.1589 9.20954C13.527 9.35704 13.8615 9.57768 14.1419 9.85812C14.4223 10.1386 14.643 10.473 14.7905 10.8411C14.938 11.2093 15.0092 11.6035 15 12C15.0092 12.3965 14.938 12.7907 14.7905 13.1589C14.643 13.527 14.4223 13.8615 14.1419 14.1419C13.8615 14.4223 13.527 14.643 13.1589 14.7905C12.7907 14.938 12.3965 15.0092 12 15C11.6035 15.0092 11.2093 14.938 10.8411 14.7905C10.473 14.643 10.1386 14.4223 9.85812 14.1419C9.57768 13.8615 9.35704 13.527 9.20954 13.1589C9.06205 12.7907 8.99077 12.3965 9 12C8.99077 11.6035 9.06205 11.2093 9.20954 10.8411C9.35704 10.473 9.57768 10.1386 9.85812 9.85812C10.1386 9.57768 10.473 9.35704 10.8411 9.20954Z" fill="currentColor"/>
  <path fill-rule="evenodd" clip-rule="evenodd" d="M20.2499 11.4226V12.5701L21.6674 13.8676C21.9291 14.097 22.1029 14.4102 22.159 14.7536C22.2151 15.0971 22.15 15.4493 21.9749 15.7501L20.2649 18.7501C20.1334 18.9779 19.9443 19.1671 19.7166 19.2987C19.4888 19.4304 19.2305 19.4998 18.9674 19.5001C18.8044 19.5013 18.6423 19.476 18.4874 19.4251L16.6724 18.8101C16.3552 19.0192 16.0245 19.2071 15.6824 19.3726L15.2999 21.2626C15.2314 21.6079 15.0435 21.918 14.7693 22.1388C14.4951 22.3595 14.1519 22.4768 13.7999 22.4701H10.2599C9.90797 22.4768 9.56483 22.3595 9.2906 22.1388C9.01638 21.918 8.82853 21.6079 8.75995 21.2626L8.37745 19.3726C8.03745 19.2078 7.70918 19.0198 7.39495 18.8101L5.57245 19.4251C5.41758 19.476 5.25546 19.5013 5.09245 19.5001C4.8294 19.4998 4.57105 19.4304 4.34332 19.2987C4.11558 19.1671 3.92647 18.9779 3.79495 18.7501L2.02495 15.7501C1.84187 15.4464 1.7723 15.0876 1.82859 14.7375C1.88489 14.3874 2.0634 14.0686 2.33245 13.8376L3.74995 12.5776V11.4301L2.33245 10.1326C2.07079 9.90316 1.89703 9.58991 1.84093 9.24648C1.78483 8.90305 1.84989 8.5508 2.02495 8.25006L3.79495 5.25006C3.92647 5.02226 4.11558 4.83305 4.34332 4.70141C4.57105 4.56977 4.8294 4.50033 5.09245 4.50006C5.25383 4.48908 5.41592 4.50428 5.57245 4.54506L7.35745 5.19006C7.6747 4.98096 8.00542 4.79305 8.34745 4.62756L8.72995 2.73756C8.79853 2.39226 8.98638 2.08209 9.2606 1.86134C9.53483 1.64058 9.87797 1.52332 10.2299 1.53006H13.7399C14.0919 1.52332 14.4351 1.64058 14.7093 1.86134C14.9835 2.08209 15.1714 2.39226 15.2399 2.73756L15.6224 4.62756C15.9624 4.79234 16.2907 4.98028 16.6049 5.19006L18.4274 4.57506C18.5823 4.52414 18.7444 4.49881 18.9074 4.50006C19.1705 4.50033 19.4288 4.56977 19.6566 4.70141C19.8843 4.83305 20.0734 5.02226 20.2049 5.25006L21.9749 8.25006C22.1606 8.55125 22.2339 8.90839 22.1817 9.25836C22.1296 9.60833 21.9554 9.9286 21.6899 10.1626L20.2499 11.4226ZM16.3349 17.1301L18.9074 18.0001L20.6774 15.0001L18.6374 13.1476C18.7761 12.3712 18.7761 11.5764 18.6374 10.8001L20.6774 9.00006L18.9074 6.00006L16.3274 6.84006C15.7228 6.33738 15.0384 5.93939 14.3024 5.66256L13.7699 3.00006H10.2299L9.69745 5.69256C8.95567 5.96183 8.26752 6.3605 7.66495 6.87006L5.09245 6.00006L3.32245 9.00006L5.36245 10.8526C5.22377 11.6289 5.22377 12.4237 5.36245 13.2001L3.32245 15.0001L5.09245 18.0001L7.67245 17.1601C8.27706 17.6627 8.96151 18.0607 9.69745 18.3376L10.2299 21.0001H13.7699L14.3024 18.3076C15.0442 18.0383 15.7324 17.6396 16.3349 17.1301Z" fill="currentColor"/>
</svg>