<svg fill="none" viewBox="0 0 24 24" xmlns="http://www.w3.org/2000/svg">
  <path d="M12 22.5C9.9233 22.5 7.89323 21.8842 6.16652 20.7304C4.4398 19.5767 3.09399 17.9368 2.29927 16.0182C1.50455 14.0996 1.29661 11.9884 1.70176 9.95156C2.1069 7.91476 3.10693 6.04383 4.57538 4.57538C6.04383 3.10693 7.91476 2.1069 9.95156 1.70176C11.9884 1.29661 14.0996 1.50455 16.0182 2.29927C17.9368 3.09399 19.5767 4.4398 20.7304 6.16652C21.8842 7.89323 22.5 9.9233 22.5 12C22.5 14.7848 21.3938 17.4555 19.4246 19.4246C17.4555 21.3938 14.7848 22.5 12 22.5ZM12 3C10.22 3 8.47992 3.52785 6.99987 4.51678C5.51983 5.50571 4.36628 6.91132 3.68509 8.55585C3.0039 10.2004 2.82567 12.01 3.17294 13.7558C3.5202 15.5016 4.37737 17.1053 5.63604 18.364C6.89472 19.6226 8.49836 20.4798 10.2442 20.8271C11.99 21.1743 13.7996 20.9961 15.4442 20.3149C17.0887 19.6337 18.4943 18.4802 19.4832 17.0001C20.4722 15.5201 21 13.78 21 12C21 9.61306 20.0518 7.32387 18.364 5.63604C16.6761 3.94822 14.387 3 12 3Z" fill="currentColor"/>
  <path d="M11.0789 14.3452V13.8838C11.0789 13.5225 11.1204 13.2075 11.2034 12.939C11.2864 12.6704 11.4256 12.4189 11.6209 12.1846C11.8162 11.9453 12.0799 11.6963 12.4119 11.4375C12.7537 11.1689 13.0247 10.937 13.2249 10.7417C13.43 10.5464 13.5765 10.3511 13.6644 10.1558C13.7571 9.95557 13.8035 9.72363 13.8035 9.45996C13.8035 9.04492 13.6619 8.72998 13.3787 8.51514C13.1004 8.29541 12.7073 8.18555 12.1995 8.18555C11.7503 8.18555 11.3279 8.24902 10.9324 8.37598C10.5369 8.50293 10.1463 8.66162 9.76056 8.85205L9.15265 7.56299C9.59699 7.31885 10.0779 7.12354 10.5955 6.97705C11.118 6.82568 11.6917 6.75 12.3167 6.75C13.3128 6.75 14.0819 6.9917 14.6238 7.4751C15.1707 7.9585 15.4442 8.5957 15.4442 9.38672C15.4442 9.82129 15.3758 10.1948 15.2391 10.5073C15.1024 10.8149 14.8997 11.1006 14.6312 11.3643C14.3675 11.623 14.0477 11.8965 13.6717 12.1846C13.3641 12.4287 13.1273 12.6411 12.9612 12.8218C12.8001 12.9976 12.6878 13.1758 12.6243 13.3564C12.5657 13.5371 12.5364 13.7544 12.5364 14.0083V14.3452H11.0789ZM10.8006 16.7036C10.8006 16.3032 10.9031 16.0225 11.1082 15.8613C11.3182 15.6953 11.5745 15.6123 11.8773 15.6123C12.1702 15.6123 12.4217 15.6953 12.6317 15.8613C12.8416 16.0225 12.9466 16.3032 12.9466 16.7036C12.9466 17.0942 12.8416 17.3774 12.6317 17.5532C12.4217 17.7241 12.1702 17.8096 11.8773 17.8096C11.5745 17.8096 11.3182 17.7241 11.1082 17.5532C10.9031 17.3774 10.8006 17.0942 10.8006 16.7036Z" fill="currentColor"/>
</svg>