<svg width="87" height="16" viewBox="0 0 87 16" fill="none" xmlns="http://www.w3.org/2000/svg">
    <path fill-rule="evenodd" clip-rule="evenodd" d="M15.25 15.085H0V0.915039H15.25V15.085ZM9.09 3.38504H6.32V5.38504H9.09V3.38504ZM9.09 6.76504H6.32V12.465H9.09V6.76504Z" fill="currentColor"/>
    <path d="M28.38 14.185H27.73L27.74 14.175C20.66 14.175 19.8 10.045 19.8 8.28504V7.82504C19.8 5.19503 21.26 2.00504 27.74 2.00504H28.39C35.85 2.00504 36.28 5.87504 36.28 6.63504V6.78504H32.43C32.0201 5.55504 30.48 4.79504 28.07 4.79504C26.05 4.79504 23.65 5.31504 23.65 7.91504V8.10504C23.65 8.59504 23.76 9.52504 24.56 10.295C25.34 11.035 26.5201 11.385 28.09 11.385C29.7801 11.385 31.9001 11.105 32.4501 9.25504H36.28V9.42504C36.28 9.92504 36.12 11.215 34.85 12.345C33.49 13.555 31.3 14.185 28.38 14.185Z" fill="currentColor"/>
    <path d="M41.7201 13.955H50.3401V13.965C52.3001 13.965 53.8801 12.375 53.8801 10.425V2.25504H50.2601V9.58504C50.2601 10.005 49.9201 10.345 49.5001 10.345H42.5601C42.1401 10.345 41.8001 10.005 41.8001 9.58504V2.25504H38.1801V10.415C38.1801 12.375 39.7701 13.955 41.7201 13.955Z" fill="currentColor"/>
    <path d="M86.35 11.335H76.03V9.18504H83.73V6.71504H76.03V4.71504H86.35V2.25504H72.64V13.955H86.35V11.335Z" fill="currentColor"/>
    <path fill-rule="evenodd" clip-rule="evenodd" d="M69.6168 8.10698C70.5773 7.43912 70.97 6.52004 70.97 5.69504V5.51504C70.97 2.44504 67.23 2.25504 66.12 2.25504H56.22V2.94504H56.21V13.955H66.11C67.23 13.955 70.96 13.765 70.96 10.695V10.515C70.96 9.69163 70.5729 8.77453 69.6168 8.10698ZM59.69 9.35503H63.67L63.9384 9.32504H65.9C66.84 9.32504 67.34 9.72504 67.34 10.465C67.34 10.825 67.23 11.645 65.9 11.645H59.7V9.36504L59.69 9.35503ZM59.69 4.56504H65.9C67.23 4.56504 67.34 5.38504 67.34 5.72504V5.74504C67.34 6.48503 66.84 6.88504 65.9 6.88504H59.69V4.56504Z" fill="currentColor"/>
</svg>