<svg fill="none" viewBox="0 0 24 24" xmlns="http://www.w3.org/2000/svg">
  <path d="M18.3501 8C18.3501 8.82843 17.6785 9.5 16.8501 9.5C16.0217 9.5 15.3501 8.82843 15.3501 8C15.3501 7.17157 16.0217 6.5 16.8501 6.5C17.6785 6.5 18.3501 7.17157 18.3501 8Z" fill="currentColor"/>
  <path fill-rule="evenodd" clip-rule="evenodd" d="M13.065 2.72023C14.0066 2.24642 15.046 1.99976 16.1001 2C17.0704 1.99978 18.0293 2.20872 18.9115 2.61261C19.7937 3.01649 20.5784 3.60582 21.2122 4.34042C21.8461 5.07503 22.3141 5.93764 22.5844 6.86948C22.8547 7.80132 22.921 8.78049 22.7786 9.74025C22.6363 10.7 22.2887 11.6178 21.7596 12.4311C21.2305 13.2444 20.5322 13.934 19.7125 14.453C18.8927 14.9721 17.9707 15.3083 17.0092 15.4387C16.0478 15.5692 15.0695 15.4908 14.1411 15.209L6.3501 23H1.8501V18.5L9.6411 10.709C9.33489 9.70041 9.26919 8.63411 9.44927 7.59555C9.62935 6.557 10.0502 5.57506 10.6781 4.72844C11.306 3.88181 12.1235 3.19404 13.065 2.72023ZM14.5761 13.7735C15.0702 13.9234 15.5837 13.9997 16.1001 14C17.2044 14.0001 18.2806 13.652 19.1757 13.0051C20.0707 12.3583 20.739 11.4457 21.0855 10.3971C21.4319 9.34859 21.4389 8.21749 21.1055 7.16473C20.772 6.11197 20.1151 5.19116 19.2281 4.53329C18.3412 3.87542 17.2693 3.51398 16.1651 3.5004C15.0609 3.48681 13.9805 3.82177 13.0776 4.45762C12.1747 5.09347 11.4954 5.99784 11.1361 7.04207C10.7769 8.08631 10.756 9.21724 11.0766 10.274L11.3376 11.1342L3.3501 19.121V21.5H5.7291L7.38435 19.8447L6.3501 18.8105L7.4106 17.75L8.44485 18.7843L9.63435 17.5947L8.6001 16.5605L9.6606 15.5L10.6948 16.5335L13.7158 13.5125L14.5761 13.7735Z" fill="currentColor"/>
</svg>