<svg viewBox="0 0 24 24" fill="none" xmlns="http://www.w3.org/2000/svg">
  <path d="M18.3335 11H9.3335V6.5C9.3335 5.70435 9.64957 4.94129 10.2122 4.37868C10.7748 3.81607 11.5378 3.5 12.3335 3.5C13.1291 3.5 13.8922 3.81607 14.4548 4.37868C15.0174 4.94129 15.3335 5.70435 15.3335 6.5H16.8335C16.8335 5.30653 16.3594 4.16193 15.5155 3.31802C14.6716 2.47411 13.527 2 12.3335 2C11.14 2 9.99543 2.47411 9.15152 3.31802C8.3076 4.16193 7.8335 5.30653 7.8335 6.5V11H6.3335C5.93567 11 5.55414 11.158 5.27284 11.4393C4.99153 11.7206 4.8335 12.1022 4.8335 12.5V21.5C4.8335 21.8978 4.99153 22.2794 5.27284 22.5607C5.55414 22.842 5.93567 23 6.3335 23H18.3335C18.7313 23 19.1129 22.842 19.3942 22.5607C19.6755 22.2794 19.8335 21.8978 19.8335 21.5V12.5C19.8335 12.1022 19.6755 11.7206 19.3942 11.4393C19.1129 11.158 18.7313 11 18.3335 11ZM18.3335 21.5H6.3335V12.5H18.3335V21.5Z" fill="currentColor"/>
</svg>