<svg viewBox="0 0 24 24" fill="none" xmlns="http://www.w3.org/2000/svg">
  <path d="M18.3501 11H16.8501V6.5C16.8501 5.30653 16.376 4.16193 15.5321 3.31802C14.6882 2.47411 13.5436 2 12.3501 2C11.1566 2 10.012 2.47411 9.16812 3.31802C8.3242 4.16193 7.8501 5.30653 7.8501 6.5V11H6.3501C5.95227 11 5.57074 11.158 5.28944 11.4393C5.00813 11.7206 4.8501 12.1022 4.8501 12.5V21.5C4.8501 21.8978 5.00813 22.2794 5.28944 22.5607C5.57074 22.842 5.95227 23 6.3501 23H18.3501C18.7479 23 19.1295 22.842 19.4108 22.5607C19.6921 22.2794 19.8501 21.8978 19.8501 21.5V12.5C19.8501 12.1022 19.6921 11.7206 19.4108 11.4393C19.1295 11.158 18.7479 11 18.3501 11ZM9.3501 6.5C9.3501 5.70435 9.66617 4.94129 10.2288 4.37868C10.7914 3.81607 11.5544 3.5 12.3501 3.5C13.1457 3.5 13.9088 3.81607 14.4714 4.37868C15.034 4.94129 15.3501 5.70435 15.3501 6.5V11H9.3501V6.5ZM18.3501 21.5H6.3501V12.5H18.3501V21.5Z" fill="currentColor" />
</svg>