<svg fill="none" viewBox="0 0 24 24" xmlns="http://www.w3.org/2000/svg">
  <path d="M15.3501 6.5H13.8501V8H15.3501V6.5Z" fill="currentColor"/>
  <path d="M19.8501 6.5H18.3501V8H19.8501V6.5Z" fill="currentColor"/>
  <path d="M15.3501 11H13.8501V12.5H15.3501V11Z" fill="currentColor"/>
  <path d="M19.8501 11H18.3501V12.5H19.8501V11Z" fill="currentColor"/>
  <path d="M15.3501 15.5H13.8501V17H15.3501V15.5Z" fill="currentColor"/>
  <path d="M19.8501 15.5H18.3501V17H19.8501V15.5Z" fill="currentColor"/>
  <path fill-rule="evenodd" clip-rule="evenodd" d="M12.3501 2H21.3501C21.7479 2 22.1295 2.15804 22.4108 2.43934C22.6921 2.72064 22.8501 3.10218 22.8501 3.5V23H1.8501V12.5C1.8501 12.1022 2.00813 11.7206 2.28944 11.4393C2.57074 11.158 2.95227 11 3.3501 11H10.8501V3.5C10.8501 3.10218 11.0081 2.72064 11.2894 2.43934C11.5707 2.15804 11.9523 2 12.3501 2ZM7.1001 16.25V21.5H10.1001V16.25H7.1001ZM11.6001 21.5H21.3501V3.5H12.3501V12.5H3.3501V21.5H5.6001V15.5C5.6001 15.3011 5.67912 15.1103 5.81977 14.9697C5.96042 14.829 6.15119 14.75 6.3501 14.75H10.8501C11.049 14.75 11.2398 14.829 11.3804 14.9697C11.5211 15.1103 11.6001 15.3011 11.6001 15.5V21.5Z" fill="currentColor"/>
</svg>