<svg fill="none" viewBox="0 0 24 25" xmlns="http://www.w3.org/2000/svg">
  <path d="M20.5875 11.7843L4.08754 3.53429C3.95821 3.46961 3.81295 3.4437 3.66924 3.45967C3.52554 3.47563 3.38951 3.5328 3.27754 3.62429C3.1706 3.71391 3.09079 3.83158 3.04707 3.96407C3.00334 4.09656 2.99745 4.23863 3.03004 4.37429L5.01754 11.7018H13.5V13.2018H5.01754L3.00004 20.5068C2.96946 20.6201 2.96589 20.739 2.98961 20.8539C3.01334 20.9688 3.06371 21.0766 3.13665 21.1685C3.2096 21.2604 3.3031 21.3339 3.40964 21.3831C3.51617 21.4323 3.63276 21.4558 3.75004 21.4518C3.86744 21.4511 3.98304 21.4228 4.08754 21.3693L20.5875 13.1193C20.7104 13.0563 20.8135 12.9607 20.8855 12.843C20.9575 12.7252 20.9956 12.5898 20.9956 12.4518C20.9956 12.3138 20.9575 12.1784 20.8855 12.0606C20.8135 11.9428 20.7104 11.8472 20.5875 11.7843Z" fill="currentColor"/>
</svg>