<svg fill="none" viewBox="0 0 24 24" xmlns="http://www.w3.org/2000/svg">
  <path d="M20.5 6.5H18.25V2H4.75V6.5H2.5C2.10218 6.5 1.72064 6.65804 1.43934 6.93934C1.15804 7.22064 1 7.60218 1 8V15.5C1 15.8978 1.15804 16.2794 1.43934 16.5607C1.72064 16.842 2.10218 17 2.5 17H4.75V21.5H18.25V17H20.5C20.8978 17 21.2794 16.842 21.5607 16.5607C21.842 16.2794 22 15.8978 22 15.5V8C22 7.60218 21.842 7.22064 21.5607 6.93934C21.2794 6.65804 20.8978 6.5 20.5 6.5ZM6.25 3.5H16.75V6.5H6.25V3.5ZM16.75 20H6.25V12.5H16.75V20ZM20.5 15.5H18.25V11H4.75V15.5H2.5V8H20.5V15.5Z" fill="currentColor" />
</svg>