<svg fill="none" viewBox="0 0 24 24" xmlns="http://www.w3.org/2000/svg">
  <path d="M8.5575 10.5L10.5 12.4425L15.4425 7.5L16.5 8.5575L10.5 14.5575L7.5 11.5575L8.5575 10.5Z" fill="currentColor"/>
  <path fill-rule="evenodd" clip-rule="evenodd" d="M7.36801 20.0303L12 22.5L16.632 20.0303C17.9526 19.3279 19.057 18.2791 19.8265 16.9964C20.5961 15.7138 21.0018 14.2458 21 12.75V3C21 2.60218 20.842 2.22064 20.5607 1.93934C20.2794 1.65804 19.8978 1.5 19.5 1.5H4.50001C4.10218 1.5 3.72065 1.65804 3.43935 1.93934C3.15804 2.22064 3.00001 2.60218 3.00001 3V12.75C2.99825 14.2458 3.40393 15.7138 4.17348 16.9964C4.94303 18.2791 6.0474 19.3279 7.36801 20.0303ZM4.50001 12.75V3H19.5V12.75C19.501 13.9739 19.1688 15.175 18.5391 16.2244C17.9094 17.2739 17.0059 18.1322 15.9255 18.7073L12 20.7997L8.07451 18.7065C6.99423 18.1315 6.09082 17.2733 5.46111 16.224C4.83141 15.1747 4.49917 13.9738 4.50001 12.75Z" fill="currentColor"/>
</svg>