<svg viewBox="0 0 24 24" fill="none" xmlns="http://www.w3.org/2000/svg">
  <path d="M21.7501 20.6895L16.0861 15.0255C17.4472 13.3914 18.126 11.2956 17.9811 9.17389C17.8363 7.05219 16.8791 5.06801 15.3086 3.6341C13.7381 2.2002 11.6752 1.42697 9.54912 1.47528C7.42303 1.52359 5.39741 2.38971 3.89365 3.89347C2.38989 5.39723 1.52377 7.42284 1.47546 9.54893C1.42715 11.675 2.20038 13.7379 3.63428 15.3084C5.06819 16.8789 7.05238 17.8361 9.17408 17.981C11.2958 18.1258 13.3916 17.4471 15.0256 16.086L20.6896 21.75L21.7501 20.6895ZM3.00015 9.74996C3.00015 8.41494 3.39603 7.1099 4.13773 5.99987C4.87943 4.88983 5.93363 4.02467 7.16703 3.51378C8.40044 3.00289 9.75764 2.86921 11.067 3.12966C12.3764 3.39011 13.5791 4.03299 14.5231 4.97699C15.4671 5.921 16.11 7.12373 16.3704 8.4331C16.6309 9.74248 16.4972 11.0997 15.9863 12.3331C15.4754 13.5665 14.6103 14.6207 13.5002 15.3624C12.3902 16.1041 11.0852 16.5 9.75015 16.5C7.96055 16.498 6.24481 15.7862 4.97937 14.5207C3.71393 13.2553 3.00213 11.5396 3.00015 9.74996Z" fill="currentColor"/>
</svg>