<svg fill="none" viewBox="0 0 24 24" xmlns="http://www.w3.org/2000/svg">
  <path d="M7 15.25H2.5C1.67275 15.25 1 14.5773 1 13.75V9.25002C1 8.42277 1.67275 7.75002 2.5 7.75002H7C7.82725 7.75002 8.5 8.42277 8.5 9.25002V13.75C8.5 14.5773 7.82725 15.25 7 15.25ZM2.5 9.25002V13.75H7V9.25002H2.5ZM12.25 22C11.9785 22 11.7095 21.99 11.443 21.97C8.179 21.721 5.173 19.921 3.40075 17.155L4.6645 16.345C5.41762 17.5177 6.43155 18.5005 7.62716 19.2167C8.82276 19.9329 10.1677 20.3631 11.557 20.4738C11.7855 20.4913 12.0165 20.5 12.25 20.5V22ZM17.5 22L15.925 21.25C14.65 20.65 13.75 19.3 13.75 17.875V13H21.25V17.875C21.25 19.3 20.425 20.65 19.075 21.25L17.5 22ZM15.25 14.5V17.875C15.25 18.775 15.775 19.525 16.525 19.9L17.5 20.35L18.475 19.9C19.225 19.525 19.75 18.7 19.75 17.875V14.5H15.25ZM20.7265 8.50002C21.067 9.46152 21.25 10.4658 21.25 11.5H22.75C22.75 10.4725 22.6007 9.46902 22.312 8.50002H20.7265ZM20.5 7.00002H18.25C17.4228 7.00002 16.75 6.32727 16.75 5.50002V3.25002C16.75 2.42277 17.4228 1.75002 18.25 1.75002H20.5C21.3272 1.75002 22 2.42277 22 3.25002V5.50002C22 6.32727 21.3272 7.00002 20.5 7.00002ZM18.25 3.25002V5.50002H20.5V3.25002H18.25ZM15.25 1.43802C14.2765 1.14766 13.2659 1.00012 12.25 1.00002C10.4863 0.996322 8.75024 1.43855 7.20324 2.28562C5.65623 3.13268 4.34847 4.35708 3.4015 5.84502L4.6645 6.65502C5.75611 4.93956 7.39818 3.64587 9.32148 2.98606C11.2448 2.32624 13.3352 2.33945 15.25 3.02352V1.43802Z" fill="currentColor" />
</svg>