<svg fill="none" viewBox="0 0 24 24" xmlns="http://www.w3.org/2000/svg">
  <path d="M12 9.00391C12.5933 9.00391 13.1734 9.17985 13.6667 9.5095C14.1601 9.83914 14.5446 10.3077 14.7716 10.8559C14.9987 11.404 15.0581 12.0072 14.9424 12.5892C14.8266 13.1711 14.5409 13.7057 14.1213 14.1252C13.7018 14.5448 13.1672 14.8305 12.5853 14.9463C12.0033 15.062 11.4001 15.0026 10.8519 14.7755C10.3038 14.5485 9.83524 14.164 9.50559 13.6706C9.17595 13.1773 9 12.5972 9 12.0039C9.00099 11.2086 9.31738 10.4461 9.87978 9.88368C10.4422 9.32129 11.2047 9.0049 12 9.00391ZM12 7.50391C11.11 7.50391 10.24 7.76783 9.49993 8.26229C8.75991 8.75676 8.18314 9.45956 7.84254 10.2818C7.50195 11.1041 7.41283 12.0089 7.58647 12.8818C7.7601 13.7547 8.18868 14.5566 8.81802 15.1859C9.44736 15.8152 10.2492 16.2438 11.1221 16.4174C11.995 16.5911 12.8998 16.502 13.7221 16.1614C14.5443 15.8208 15.2471 15.244 15.7416 14.504C16.2361 13.764 16.5 12.8939 16.5 12.0039C16.5 10.8104 16.0259 9.66584 15.182 8.82193C14.3381 7.97801 13.1935 7.50391 12 7.50391ZM4.0455 5.10991L5.1075 4.04941L7.73625 6.67891L6.675 7.73941L4.0455 5.10991ZM1.5 11.2539H5.25V12.7539H1.5V11.2539ZM4.0455 18.8987L6.675 16.2692L7.7355 17.3297L5.10675 19.9592L4.0455 18.8987ZM11.25 18.7539H12.75V22.5039H11.25V18.7539ZM16.2653 17.3289L17.3258 16.2684L19.9552 18.8979L18.8948 19.9584L16.2653 17.3289ZM18.75 11.2539H22.5V12.7539H18.75V11.2539ZM16.2653 6.67816L18.8948 4.04866L19.9552 5.10916L17.3258 7.73866L16.2653 6.67816ZM11.25 1.50391H12.75V5.25391H11.25V1.50391Z" fill="currentColor" />
</svg>