<svg fill="none" viewBox="0 0 24 24" xmlns="http://www.w3.org/2000/svg">
  <path d="M12 3C12.7417 3 13.4667 3.21993 14.0834 3.63199C14.7001 4.04404 15.1807 4.62971 15.4645 5.31494C15.7484 6.00016 15.8226 6.75416 15.6779 7.48159C15.5333 8.20902 15.1761 8.8772 14.6517 9.40165C14.1272 9.9261 13.459 10.2833 12.7316 10.4279C12.0042 10.5726 11.2502 10.4984 10.5649 10.2145C9.87971 9.93072 9.29404 9.45007 8.88199 8.83339C8.46993 8.2167 8.25 7.49168 8.25 6.75C8.25 5.75544 8.64509 4.80161 9.34835 4.09835C10.0516 3.39509 11.0054 3 12 3ZM12 1.5C10.9616 1.5 9.94661 1.80791 9.08326 2.38478C8.2199 2.96166 7.54699 3.7816 7.14963 4.74091C6.75227 5.70022 6.64831 6.75582 6.85088 7.77422C7.05345 8.79262 7.55346 9.72808 8.28769 10.4623C9.02192 11.1965 9.95738 11.6966 10.9758 11.8991C11.9942 12.1017 13.0498 11.9977 14.0091 11.6004C14.9684 11.203 15.7883 10.5301 16.3652 9.66674C16.9421 8.80339 17.25 7.78835 17.25 6.75C17.25 5.35761 16.6969 4.02226 15.7123 3.03769C14.7277 2.05312 13.3924 1.5 12 1.5ZM19.5 24H18V20.25C18 19.7575 17.903 19.2699 17.7145 18.8149C17.5261 18.36 17.2499 17.9466 16.9017 17.5984C16.5534 17.2501 16.14 16.9739 15.6851 16.7855C15.2301 16.597 14.7425 16.5 14.25 16.5H9.75C8.75544 16.5 7.80161 16.8951 7.09835 17.5984C6.39509 18.3016 6 19.2554 6 20.25V24H4.5V20.25C4.5 18.8576 5.05312 17.5223 6.03769 16.5377C7.02226 15.5531 8.35761 15 9.75 15H14.25C15.6424 15 16.9777 15.5531 17.9623 16.5377C18.9469 17.5223 19.5 18.8576 19.5 20.25V24Z" fill="currentColor" />
</svg>